<?xml version="1.0" encoding="UTF-8"?>
<svg version="1.1" xmlns="http://www.w3.org/2000/svg" width="512" height="512">
<path d="M0 0 C0.8781776 -0.00282738 1.75635521 -0.00565475 2.66114426 -0.00856781 C7.2869571 -0.02337473 11.91274011 -0.0327266 16.53857422 -0.03710938 C21.28820165 -0.04264268 26.03754945 -0.06682428 30.78708839 -0.09508133 C34.47436339 -0.11372998 38.16157024 -0.11891396 41.8488884 -0.12044525 C43.60067692 -0.12345492 45.35246474 -0.13142586 47.10420609 -0.14463043 C49.5483691 -0.16177822 51.99183562 -0.15979252 54.43603516 -0.15332031 C55.1457547 -0.1625351 55.85547424 -0.17174988 56.58670044 -0.1812439 C63.82815338 -0.12149273 70.38991927 2.00710677 75.5859375 7.203125 C79.82628591 13.33443959 81.32793422 18.76966692 80.5859375 26.203125 C78.92013653 33.32540787 75.3941379 37.13995736 69.5234375 41.453125 C64.51514382 44.43678932 59.95863675 44.35779084 54.23168945 44.37670898 C53.39034454 44.383396 52.54899963 44.39008301 51.68215942 44.39697266 C49.8548508 44.41101361 48.02752474 44.4229107 46.20018959 44.43292046 C43.29251038 44.44939844 40.38495689 44.4726468 37.4773407 44.49781799 C29.20948645 44.56835027 20.94157683 44.62822416 12.67358398 44.67993164 C7.61140326 44.71206674 2.5493615 44.75343851 -2.51270485 44.80012703 C-4.4272691 44.81596086 -6.34186535 44.82836616 -8.25647545 44.83703423 C-17.49023457 44.8793906 -26.64140946 45.04786419 -35.82348633 46.09399414 C-36.4997919 46.16996795 -37.17609747 46.24594175 -37.87289715 46.3242178 C-49.7301714 47.84170897 -59.71490402 53.51946698 -67.44921875 62.58984375 C-73.33305131 70.54738375 -76.37721527 78.13789247 -77.50335693 87.96386719 C-77.5890216 88.70853115 -77.67468627 89.45319511 -77.76294684 90.22042465 C-78.62565364 98.30622939 -78.69580384 106.34535725 -78.67285156 114.46875 C-78.67557113 116.11853183 -78.6791374 117.76831244 -78.68347168 119.41809082 C-78.69248336 123.84373532 -78.68909847 128.26928516 -78.68271351 132.69493103 C-78.67759465 137.36075059 -78.68236111 142.02656288 -78.68548584 146.69238281 C-78.68910853 154.52280102 -78.68437123 162.35318132 -78.67480469 170.18359375 C-78.66392344 179.19327967 -78.66745023 188.20287502 -78.6784575 197.21255875 C-78.68757903 204.9948516 -78.68879201 212.77711743 -78.68358016 220.55941391 C-78.68048706 225.1869632 -78.67997689 229.81447015 -78.68665314 234.4420166 C-78.69249736 238.79573231 -78.68830262 243.14933301 -78.67686462 247.5030365 C-78.67425539 249.0858898 -78.67491768 250.66875304 -78.67938995 252.25160217 C-78.70013477 260.35014736 -78.44123628 268.32720533 -77.53070068 276.37988281 C-77.4542766 277.07031551 -77.37785252 277.76074821 -77.29911256 278.47210312 C-75.80388743 290.41935426 -70.17102853 300.44145675 -61.02734375 308.23828125 C-53.06980375 314.12211381 -45.47929503 317.16627777 -35.65332031 318.29241943 C-34.90865635 318.3780841 -34.16399239 318.46374877 -33.39676285 318.55200934 C-25.31095811 319.41471614 -17.27183025 319.48486634 -9.1484375 319.46191406 C-7.49865567 319.46463363 -5.84887506 319.4681999 -4.19909668 319.47253418 C0.22654782 319.48154586 4.65209766 319.47816097 9.07774353 319.47177601 C13.74356309 319.46665715 18.40937538 319.47142361 23.07519531 319.47454834 C30.90561352 319.47817103 38.73599382 319.47343373 46.56640625 319.46386719 C55.57609217 319.45298594 64.58568752 319.45651273 73.59537125 319.46752 C81.3776641 319.47664153 89.15992993 319.47785451 96.94222641 319.47264266 C101.5697757 319.46954956 106.19728265 319.46903939 110.8248291 319.47571564 C115.17854481 319.48155986 119.53214551 319.47736512 123.885849 319.46592712 C125.4687023 319.46331789 127.05156554 319.46398018 128.63441467 319.46845245 C136.73295986 319.48919727 144.71001783 319.23029878 152.76269531 318.31976318 C153.45312801 318.2433391 154.14356071 318.16691502 154.85491562 318.08817506 C166.80216676 316.59294993 176.82426925 310.96009103 184.62109375 301.81640625 C196.18934841 286.17101725 195.87148337 267.85735945 195.89089775 249.167799 C195.89463097 246.27828482 195.91153493 243.3890932 195.93165588 240.49964905 C195.98646139 232.29906197 196.01785804 224.0984336 196.04223633 215.89770508 C196.05814196 210.84647663 196.08836645 205.79548968 196.12700081 200.74438667 C196.1385961 198.83354825 196.14458068 196.92266674 196.14468193 195.01179314 C196.14487483 192.34476328 196.16319559 189.67840032 196.18530273 187.01147461 C196.18072556 186.23472885 196.17614838 185.45798309 196.1714325 184.65769958 C196.26863241 177.2498076 198.2110539 170.5780086 203.5859375 165.203125 C209.70996775 160.96781436 215.15837263 159.44823637 222.5859375 160.203125 C228.23824757 161.61880487 233.33687143 163.95109703 236.7421875 168.875 C240.22232166 174.69179567 240.7353768 179.22299712 240.73120117 185.87963867 C240.73623909 187.03459839 240.73623909 187.03459839 240.74137878 188.21289062 C240.75089149 190.76564142 240.75283385 193.31832631 240.75390625 195.87109375 C240.75712497 197.66636684 240.76048949 199.46163967 240.76399231 201.25691223 C240.76998884 205.03562016 240.77183231 208.81430523 240.77124023 212.59301758 C240.77115977 216.42054044 240.77796938 220.24794162 240.79174805 224.07543945 C241.03630565 293.03830456 241.03630565 293.03830456 229.5859375 314.203125 C228.90724609 315.45996094 228.90724609 315.45996094 228.21484375 316.7421875 C216.57273182 337.12377098 198.2650612 352.58882648 175.7109375 359.453125 C152.47550677 365.57975389 127.95285738 364.36655698 104.11612892 364.37038207 C101.59413566 364.37110031 99.07214759 364.37324902 96.55015564 364.37587929 C87.70205346 364.38509018 78.85396619 364.38921968 70.00585938 364.38842773 C61.83873409 364.38782858 53.67167519 364.39835958 45.50456667 364.4141714 C38.42614583 364.42737296 31.34774635 364.43260639 24.26931334 364.43197232 C20.07128773 364.43172094 15.87332124 364.43436751 11.67530823 364.44515038 C-52.35199592 364.59790235 -52.35199592 364.59790235 -73.4140625 353.203125 C-74.67089844 352.52443359 -74.67089844 352.52443359 -75.953125 351.83203125 C-96.33470848 340.18991932 -111.79976398 321.8822487 -118.6640625 299.328125 C-123.32435306 281.67316534 -123.56666991 263.31993561 -123.55932617 245.16601562 C-123.5623302 243.64743977 -123.5657355 242.12886467 -123.56950378 240.61029053 C-123.57822332 236.53949633 -123.58067678 232.46872324 -123.58131957 228.39792061 C-123.58203717 225.83825088 -123.58418472 223.27858628 -123.58681679 220.71891785 C-123.59603156 211.74229602 -123.6001567 202.7656889 -123.59936523 193.7890625 C-123.59876603 185.49753845 -123.60929693 177.20607978 -123.6251089 168.91457224 C-123.63830222 161.733428 -123.64354423 154.55230481 -123.64290982 147.37114859 C-123.6426582 143.10998312 -123.64531903 138.84887587 -123.65608788 134.58772278 C-123.80474972 71.25763141 -123.80474972 71.25763141 -112.4140625 50.203125 C-111.96160156 49.36523438 -111.50914063 48.52734375 -111.04296875 47.6640625 C-99.40085682 27.28247902 -81.0931862 11.81742352 -58.5390625 4.953125 C-39.48194126 -0.07178333 -19.58205003 0.0434351 0 0 Z " fill="#000000" transform="translate(165.4140625,105.796875)"/>
<path d="M0 0 C1.7821843 -0.005476 1.7821843 -0.005476 3.60037231 -0.01106262 C6.8405414 -0.01775265 10.08033131 -0.01109038 13.32046938 0.00226951 C16.7305224 0.01366085 20.14056205 0.00947019 23.55062866 0.00752258 C29.28184937 0.0066413 35.01295145 0.01767915 40.74414062 0.03613281 C47.33558218 0.05723722 53.92684934 0.06082221 60.51831782 0.05457085 C66.89350499 0.04883775 73.2686318 0.05457284 79.64381027 0.0657444 C82.33960481 0.07034471 85.03536186 0.07128426 87.73115921 0.06915855 C131.97327657 0.06478111 131.97327657 0.06478111 149.08740234 16.43481445 C161.71566418 29.62852085 163.06610071 46.23585719 163.1081543 63.61816406 C163.11472549 64.81285812 163.12129669 66.00755219 163.12806702 67.2384491 C163.14767756 71.16717915 163.1594447 75.09589574 163.16943359 79.0246582 C163.1734875 80.38557008 163.1776046 81.74648177 163.18178368 83.10739326 C163.20078467 89.49966077 163.21503087 95.89191704 163.22339565 102.28420728 C163.23317431 109.63234843 163.2595314 116.98018889 163.29989654 124.32822412 C163.33013859 130.03127723 163.3448718 135.73424441 163.34817666 141.43737608 C163.35051616 144.83365634 163.3593332 148.22961344 163.38463783 151.62580681 C163.40903603 155.41647123 163.40806292 159.20635109 163.40112305 162.99707031 C163.42033813 164.66116943 163.42033813 164.66116943 163.43994141 166.35888672 C163.38942701 173.95439829 162.45439486 181.45906627 157.18103504 187.31616116 C151.3237205 192.71794663 145.77752153 193.83888928 137.93896484 193.68481445 C131.96362508 193.06399993 128.35521334 190.76472965 124.11865234 186.62231445 C119.44654543 179.68089847 118.48558948 173.62598725 118.4987793 165.46801758 C118.48349182 164.03249039 118.48349182 164.03249039 118.46789551 162.56796265 C118.43789333 159.42976937 118.42851904 156.29188199 118.41943359 153.15356445 C118.40257746 150.96780391 118.38442596 148.78205301 118.36503601 146.59631348 C118.31763161 140.86221326 118.28776032 135.12815213 118.26159668 129.3939209 C118.23174296 123.53507774 118.18522914 117.67636914 118.14013672 111.81762695 C118.05421231 100.33592664 117.98681867 88.85419856 117.93115234 77.37231445 C117.14393012 78.16230206 116.3567079 78.95228966 115.54563046 79.76621628 C96.39138751 98.98705473 77.22850074 118.19924187 58.0565176 137.40238571 C48.78529808 146.68907479 39.51690854 155.97855569 30.25512695 165.2746582 C22.18265869 173.37702594 14.10493277 181.47410838 6.0208469 189.56488538 C1.74049368 193.84914989 -2.53717853 198.13601633 -6.80856514 202.42922211 C-10.82965069 206.47068125 -14.85773315 210.50503187 -18.89127159 214.53406143 C-20.36968594 216.01330058 -21.84553444 217.49510933 -23.31859589 218.97967911 C-25.33238829 221.00842872 -27.35526565 223.02767365 -29.38063049 225.04486084 C-29.95944664 225.63241551 -30.53826279 226.21997018 -31.13461882 226.82532954 C-36.91882016 232.54675633 -42.59253052 236.07389331 -50.81884766 236.62231445 C-57.474594 236.52315995 -63.35039897 234.09076314 -68.06884766 229.37231445 C-72.32718039 223.21499551 -73.7651876 217.82724792 -73.06884766 210.37231445 C-69.89299423 197.24545362 -55.83725378 187.00170476 -46.55297852 177.74291992 C-45.10317852 176.2934025 -43.65359969 174.84366385 -42.20422363 173.39372253 C-38.29595938 169.48517306 -34.38463426 165.5797 -30.47272563 161.67479849 C-26.37499922 157.58335162 -22.28013166 153.48904548 -18.18495178 149.39505005 C-10.4417861 141.65498417 -2.69607634 133.91746949 5.05056518 126.18088257 C13.87484038 117.36781059 22.69625363 108.5518763 31.51743519 99.735708 C49.6521725 81.61140447 67.79047634 63.49067378 85.93115234 45.37231445 C84.72560699 45.36866882 83.52006165 45.36502319 82.27798462 45.36126709 C70.89064326 45.32425016 59.50357065 45.26640413 48.1164341 45.18841171 C42.26283304 45.14898216 36.40938141 45.11677135 30.55566406 45.10131836 C24.90149842 45.08612222 19.2477437 45.05162361 13.59376144 45.00400543 C11.44176184 44.98922221 9.28970356 44.9812752 7.13765335 44.9804306 C4.11216187 44.97805002 1.08779599 44.95088206 -1.9375 44.91821289 C-3.25812943 44.92575844 -3.25812943 44.92575844 -4.60543823 44.93345642 C-11.58371747 44.81764636 -18.68261096 43.40686885 -24.02145958 38.62249374 C-29.40601711 32.7497548 -30.53552879 27.2240919 -30.38134766 19.38012695 C-29.76053313 13.40478719 -27.46126285 9.79637545 -23.31884766 5.55981445 C-15.64487682 0.39464178 -9.01735377 -0.06216662 0 0 Z " fill="#000000" transform="translate(307.06884765625,41.627685546875)"/>
</svg>
